<svg width="36" height="36" viewBox="0 0 36 36" fill="none" xmlns="http://www.w3.org/2000/svg">
<path fill-rule="evenodd" clip-rule="evenodd" d="M34.6965 17.6794C34.6965 16.4719 34.5905 15.3108 34.3935 14.1961H18.6965V20.7835H27.6662C27.2799 22.9121 26.1056 24.7157 24.3405 25.9233V30.1961H29.7268C32.8784 27.2315 34.6965 22.8657 34.6965 17.6794Z" fill="#4285F4"/>
<path fill-rule="evenodd" clip-rule="evenodd" d="M18.2085 34.1961C22.8952 34.1961 26.8245 32.6484 29.6965 30.0087L24.0867 25.672C22.5323 26.709 20.544 27.3218 18.2085 27.3218C13.6875 27.3218 9.86076 24.2814 8.49577 20.1961H2.69653V24.6743C5.55276 30.323 11.423 34.1961 18.2085 34.1961Z" fill="#34A853"/>
<path fill-rule="evenodd" clip-rule="evenodd" d="M8.69653 20.5808C8.33327 19.5119 8.12687 18.3702 8.12687 17.1961C8.12687 16.022 8.33327 14.8803 8.69653 13.8115V9.19614H2.62842C1.39829 11.601 0.696533 14.3216 0.696533 17.1961C0.696533 20.0706 1.39829 22.7913 2.62842 25.1961L8.69653 20.5808Z" fill="#FBBC05"/>
<path fill-rule="evenodd" clip-rule="evenodd" d="M18.1363 7.07044C20.673 7.07044 22.9505 7.94249 24.741 9.65517L29.6965 4.69782C26.7044 1.90882 22.7934 0.196136 18.1363 0.196136C11.3824 0.196136 5.53947 4.06931 2.69653 9.71802L8.46878 14.1961C9.82742 10.1108 13.6363 7.07044 18.1363 7.07044Z" fill="#EA4335"/>
</svg>
