<svg width="31" height="35" viewBox="0 0 31 35" fill="none" xmlns="http://www.w3.org/2000/svg">
<path d="M29.7369 27.5047C29.2076 28.7275 28.581 29.8531 27.8551 30.8879C26.8657 32.2987 26.0555 33.2752 25.4311 33.8175C24.4633 34.7076 23.4263 35.1634 22.3158 35.1893C21.5186 35.1893 20.5572 34.9625 19.4381 34.5023C18.3153 34.0443 17.2835 33.8175 16.3401 33.8175C15.3506 33.8175 14.2894 34.0443 13.1543 34.5023C12.0175 34.9625 11.1017 35.2023 10.4015 35.2261C9.33659 35.2714 8.27517 34.8026 7.21569 33.8175C6.53948 33.2277 5.69367 32.2166 4.68043 30.7842C3.5933 29.2546 2.69953 27.4809 1.99934 25.4588C1.24945 23.2746 0.873535 21.1595 0.873535 19.1119C0.873535 16.7663 1.38037 14.7433 2.39556 13.048C3.1934 11.6863 4.25482 10.6121 5.58327 9.82353C6.91172 9.03498 8.34711 8.63314 9.8929 8.60743C10.7387 8.60743 11.8479 8.86905 13.2262 9.38324C14.6007 9.89915 15.4832 10.1608 15.8702 10.1608C16.1594 10.1608 17.1398 9.85486 18.8019 9.24497C20.3736 8.67937 21.7001 8.44518 22.7868 8.53743C25.7314 8.77507 27.9437 9.93587 29.415 12.0272C26.7814 13.6229 25.4787 15.8578 25.5046 18.7249C25.5284 20.9582 26.3385 22.8166 27.9308 24.2921C28.6523 24.977 29.4582 25.5063 30.3548 25.8822C30.1603 26.4461 29.9551 26.9862 29.7369 27.5047ZM22.9834 0.929264C22.9834 2.67966 22.3439 4.31401 21.0692 5.82674C19.531 7.62508 17.6704 8.66424 15.6528 8.50027C15.6271 8.29027 15.6122 8.06926 15.6122 7.83702C15.6122 6.15664 16.3437 4.3583 17.6428 2.88791C18.2914 2.14342 19.1162 1.5244 20.1165 1.03059C21.1146 0.544145 22.0587 0.275132 22.9466 0.229065C22.9726 0.463066 22.9834 0.697082 22.9834 0.929242V0.929264Z" fill="white"/>
</svg>
